<svg id="Layer_1" enable-background="new 0 0 512 512" height="512" viewBox="0 0 512 512" width="512" xmlns="http://www.w3.org/2000/svg"><g><path d="m456.606 104.052-99.659-99.658c-2.812-2.814-6.628-4.394-10.606-4.394h-235.903c-32.774 0-59.438 26.664-59.438 59.438v393.124c0 32.774 26.664 59.438 59.438 59.438h291.123c32.775 0 59.439-26.664 59.439-59.438v-337.904c0-3.978-1.58-7.794-4.394-10.606zm-95.265-52.839 48.446 48.446h-48.446zm40.221 430.787h-291.124c-16.232 0-29.438-13.206-29.438-29.438v-393.124c0-16.232 13.206-29.438 29.438-29.438h220.902v84.658c0 8.284 6.716 15 15 15h84.66v322.903c0 16.233-13.206 29.439-29.438 29.439z"/><path d="m131.135 133.544h20.544v20.544c0 8.284 6.716 15 15 15s15-6.716 15-15v-20.544h20.544c8.284 0 15-6.716 15-15s-6.716-15-15-15h-20.544v-20.544c0-8.284-6.716-15-15-15s-15 6.716-15 15v20.544h-20.544c-8.284 0-15 6.716-15 15s6.716 15 15 15z"/><path d="m381.622 203.544h-250.487c-8.284 0-15 6.716-15 15s6.716 15 15 15h250.487c8.284 0 15-6.716 15-15s-6.716-15-15-15z"/><path d="m381.622 417.445h-250.487c-8.284 0-15 6.716-15 15s6.716 15 15 15h250.487c8.284 0 15-6.716 15-15s-6.716-15-15-15z"/><path d="m131.135 286.995h220.487c8.284 0 15-6.716 15-15s-6.716-15-15-15h-220.487c-8.284 0-15 6.716-15 15s6.716 15 15 15z"/><path d="m381.622 309.995h-250.487c-8.284 0-15 6.716-15 15s6.716 15 15 15h250.487c8.284 0 15-6.716 15-15s-6.716-15-15-15z"/><path d="m131.135 392.445h198.249c8.284 0 15-6.716 15-15s-6.716-15-15-15h-198.249c-8.284 0-15 6.716-15 15s6.716 15 15 15z"/></g></svg>